# xmcd
#
# Track frame offsets:
#	182
#	12135
#	29997
#	48645
#	61227
#	74092
#	85837
#	104142
#	124182
#	136147
#	149822
#	161837
#
# Disc length: 2352 seconds
#
# Revision: 0
# Processed by: cddbd v1.5.1PL0 Copyright (c) Steve Scherf et al.
# Submitted via: EasyCDDAExtractor 8.0.1.1
#
DISCID=bf092e0c
DTITLE=Anne Murray - From Springhill To The World
DYEAR=1900
DGENRE=
TTITLE0=I'll Be Home
TTITLE1=Song For The Mira
TTITLE2=Put Your Hand In The Hand
TTITLE3=Please Don't Sell Nova Scotia
TTITLE4=Canadian Sunset
TTITLE5=Robbie's Song For Jesus
TTITLE6=The French Waltz
TTITLE7=Flying On Your Own
TTITLE8=Walk Right Back
TTITLE9=Cotton Jenny
TTITLE10=What About Me
TTITLE11=Could I Have This Dance
EXTD=
EXTT0=
EXTT1=
EXTT2=
EXTT3=
EXTT4=
EXTT5=
EXTT6=
EXTT7=
EXTT8=
EXTT9=
EXTT10=
EXTT11=
PLAYORDER=
